<?xml version="1.0" standalone="no"?>
<!DOCTYPE svg PUBLIC "-//W3C//DTD SVG 20010904//EN"
 "http://www.w3.org/TR/2001/REC-SVG-20010904/DTD/svg10.dtd">
<svg version="1.0" xmlns="http://www.w3.org/2000/svg"
 width="1536.000000pt" height="1024.000000pt" viewBox="0 0 1536.000000 1024.000000"
 preserveAspectRatio="xMidYMid meet">

<g transform="translate(0.000000,1024.000000) scale(0.100000,-0.100000)"
fill="#000000" stroke="none">
<path d="M0 5120 l0 -5120 7680 0 7680 0 0 5120 0 5120 -7680 0 -7680 0 0
-5120z m2839 5025 c0 -5 -6 1 -14 15 -8 14 -14 30 -14 35 0 6 6 -1 14 -15 8
-14 14 -29 14 -35z m160 -5 c0 -10 -3 -8 -9 5 -12 27 -12 43 0 25 5 -8 9 -22
9 -30z m18 -92 c-3 -7 -5 -2 -5 12 0 14 2 19 5 13 2 -7 2 -19 0 -25z m10 -40
c-3 -8 -6 -5 -6 6 -1 11 2 17 5 13 3 -3 4 -12 1 -19z m-128 -48 c0 -9 -4 -8
-9 5 -5 11 -9 27 -9 35 0 9 4 8 9 -5 5 -11 9 -27 9 -35z m159 -90 c0 -14 -6 2
-14 35 -7 33 -13 67 -12 75 1 23 26 -82 26 -110z m-151 48 c-3 -8 -6 -5 -6 6
-1 11 2 17 5 13 3 -3 4 -12 1 -19z m10 -50 c-3 -7 -5 -2 -5 12 0 14 2 19 5 13
2 -7 2 -19 0 -25z m161 -108 c0 -22 -1 -22 -8 5 -4 17 -8 41 -8 55 0 22 1 22
8 -5 4 -16 8 -41 8 -55z m9 -77 c-3 -10 -5 -2 -5 17 0 19 2 27 5 18 2 -10 2
-26 0 -35z m10 -70 c-3 -10 -5 -2 -5 17 0 19 2 27 5 18 2 -10 2 -26 0 -35z
m10 -90 c-3 -10 -5 -2 -5 17 0 19 2 27 5 18 2 -10 2 -26 0 -35z m10 -65 c-3
-8 -6 -5 -6 6 -1 11 2 17 5 13 3 -3 4 -12 1 -19z m10089 -685 c-14 -26 -25
-45 -26 -41 0 12 43 98 48 94 2 -2 -8 -26 -22 -53z m-2893 -250 c8 -10 16 -27
18 -38 4 -25 -9 -65 -21 -65 -5 0 -15 -3 -24 -6 -23 -9 -66 40 -66 75 0 48 60
69 93 34z m-7006 -60 c-3 -10 -5 -4 -5 12 0 17 2 24 5 18 2 -7 2 -21 0 -30z
m10 -75 c-3 -7 -5 -2 -5 12 0 14 2 19 5 13 2 -7 2 -19 0 -25z m9730 -10 c-3
-8 -6 -5 -6 6 -1 11 2 17 5 13 3 -3 4 -12 1 -19z m-9720 -60 c-2 -13 -4 -5 -4
17 -1 22 1 32 4 23 2 -10 2 -28 0 -40z m79 -428 c19 -107 48 -251 64 -320 16
-69 38 -186 49 -260 45 -296 100 -529 144 -608 18 -31 122 -107 168 -122 58
-20 79 -5 148 107 34 54 79 123 100 153 102 146 247 381 281 454 20 44 52 132
70 194 18 61 35 110 38 108 2 -3 -12 -60 -33 -128 -50 -169 -119 -297 -342
-634 -77 -116 -144 -231 -147 -251 -1 -8 -9 -19 -17 -24 -10 -6 -10 -9 -1 -9
6 0 12 -4 12 -10 0 -5 -9 -10 -19 -10 -11 0 -22 -4 -25 -9 -3 -5 -21 -5 -40
-1 -28 6 -38 4 -51 -11 -10 -10 -14 -23 -9 -30 4 -8 3 -10 -4 -5 -15 9 -16 36
-2 36 16 0 11 36 -7 57 -10 10 -15 14 -10 9 17 -22 5 -29 -13 -7 -15 17 -20
19 -20 7 0 -9 9 -21 20 -28 21 -14 27 -28 10 -28 -18 0 -48 41 -43 61 6 21
-33 60 -53 52 -6 -2 -18 18 -27 44 -9 26 -25 73 -36 103 -22 63 -92 410 -116
580 -9 63 -25 149 -35 190 -11 41 -37 179 -59 305 -23 127 -45 255 -50 285 -6
30 -12 78 -15 105 -6 56 19 -68 70 -355z m1304 376 c0 -2 -8 -10 -17 -17 -16
-13 -17 -12 -4 4 13 16 21 21 21 13z m-143 -58 c-3 -8 -6 -5 -6 6 -1 11 2 17
5 13 3 -3 4 -12 1 -19z m40 -90 c-3 -8 -6 -5 -6 6 -1 11 2 17 5 13 3 -3 4 -12
1 -19z m-10 -40 c-3 -8 -6 -5 -6 6 -1 11 2 17 5 13 3 -3 4 -12 1 -19z m-10
-40 c-3 -8 -6 -5 -6 6 -1 11 2 17 5 13 3 -3 4 -12 1 -19z m-1369 -78 c0 -22
-1 -22 -8 5 -4 17 -8 41 -8 55 0 22 1 22 8 -5 4 -16 8 -41 8 -55z m9 -62 c-3
-7 -5 -2 -5 12 0 14 2 19 5 13 2 -7 2 -19 0 -25z m1330 10 c-3 -8 -6 -5 -6 6
-1 11 2 17 5 13 3 -3 4 -12 1 -19z m-1320 -65 c-3 -10 -5 -4 -5 12 0 17 2 24
5 18 2 -7 2 -21 0 -30z m31 -153 c0 -29 -15 31 -23 95 -4 32 -2 29 10 -15 8
-30 14 -66 13 -80z m1942 126 c0 -2 -21 -20 -47 -41 l-48 -37 45 41 c45 41 50
45 50 37z m-110 -91 c-7 -8 -17 -15 -23 -15 -6 0 -2 7 9 15 25 19 30 19 14 0z
m-563 -137 c-2 -18 -4 -6 -4 27 0 33 2 48 4 33 2 -15 2 -42 0 -60z m-1880 50
c-3 -8 -6 -5 -6 6 -1 11 2 17 5 13 3 -3 4 -12 1 -19z m620 -10 c-3 -7 -5 -2
-5 12 0 14 2 19 5 13 2 -7 2 -19 0 -25z m1200 -5 c-3 -10 -5 -4 -5 12 0 17 2
24 5 18 2 -7 2 -21 0 -30z m-1174 -138 c32 -241 39 -376 32 -560 -4 -99 -11
-202 -16 -229 -10 -55 -47 -126 -65 -126 -21 0 -25 -17 -8 -34 19 -20 6 -20
-20 -1 -23 17 -40 20 -31 5 3 -5 -3 -10 -14 -10 -25 0 -27 15 -4 28 15 9 14
10 -3 16 -11 3 -29 25 -41 49 -29 61 -166 287 -233 387 -111 164 -171 288
-195 403 -23 105 -16 103 11 -3 29 -116 101 -262 190 -390 67 -95 175 -269
228 -366 47 -87 92 -96 139 -27 34 51 43 106 52 308 6 152 -4 328 -31 530 -8
61 -14 119 -14 129 0 43 8 5 23 -109z m1352 115 c-3 -5 -12 -10 -18 -10 -7 0
-6 4 3 10 19 12 23 12 15 0z m-1978 -32 c-3 -8 -6 -5 -6 6 -1 11 2 17 5 13 3
-3 4 -12 1 -19z m2063 8 c0 -2 -18 -15 -39 -29 -22 -15 -57 -45 -78 -67 -36
-39 -171 -274 -233 -407 -30 -65 -95 -268 -123 -383 -37 -152 -41 -180 -42
-275 0 -92 3 -106 31 -165 46 -97 101 -173 211 -291 100 -109 127 -127 223
-153 139 -38 447 -47 725 -20 231 21 618 29 740 15 55 -6 154 -25 220 -41 66
-16 169 -36 229 -45 59 -9 129 -24 155 -34 79 -31 166 -35 244 -11 63 20 72
20 120 6 29 -8 72 -17 97 -21 60 -8 148 -43 183 -72 30 -24 31 -25 145 -48 40
-8 86 -22 102 -30 17 -9 56 -15 96 -15 90 0 136 -23 239 -121 92 -86 125 -107
187 -115 37 -5 53 -1 108 30 100 55 262 132 314 150 74 25 107 20 201 -29 112
-58 172 -75 270 -75 131 0 263 44 420 140 97 60 120 65 41 10 -74 -52 -182
-106 -270 -136 -74 -26 -222 -48 -252 -38 -11 3 -8 -1 6 -9 14 -9 84 -34 155
-57 72 -23 164 -59 205 -80 70 -34 240 -140 226 -140 -3 0 -57 30 -119 68 -63
37 -149 79 -193 94 -199 66 -244 79 -253 73 -6 -3 -27 5 -48 18 -88 55 -278
147 -304 147 -38 0 -195 -61 -260 -102 -82 -52 -180 -96 -226 -104 -54 -8
-101 18 -213 121 -45 41 -102 87 -127 102 -39 22 -52 25 -106 20 -51 -5 -71
-1 -119 19 -31 13 -73 24 -91 24 -58 0 -185 51 -240 97 -34 27 -50 28 -148 8
-57 -12 -91 -13 -149 -6 -128 16 -254 40 -285 55 -73 35 -105 46 -135 46 -18
0 -91 15 -164 34 -72 19 -165 40 -206 48 -93 16 -547 16 -705 0 -312 -32 -412
-36 -578 -23 -89 7 -181 15 -204 18 -28 4 -43 2 -43 -5 0 -6 7 -9 15 -6 8 4
15 1 15 -5 0 -16 -20 -14 -40 4 -8 8 -32 21 -52 29 -32 14 -37 14 -42 0 -3 -9
-3 -26 0 -39 5 -20 3 -23 -16 -18 -27 7 -36 29 -20 48 10 12 9 15 -9 15 -11 0
-21 -6 -21 -14 0 -7 -9 -16 -20 -19 -11 -3 -20 -1 -20 5 0 6 -11 8 -24 4 -14
-3 -28 -1 -31 4 -4 6 -11 8 -16 5 -5 -4 -9 1 -9 9 0 19 11 20 30 4 8 -7 6 -3
-4 10 -17 20 -17 22 -3 22 10 0 17 -4 17 -10 0 -5 9 -14 19 -20 14 -7 19 -7
17 3 -7 32 -20 47 -42 47 -13 0 -24 5 -24 11 0 6 7 9 15 5 8 -3 15 0 15 5 0 7
-11 9 -25 7 -17 -4 -25 -1 -25 8 0 7 -9 18 -19 24 -11 5 -22 18 -26 28 -3 11
-16 24 -29 30 -18 8 -23 16 -19 32 4 16 2 19 -11 14 -21 -8 -21 5 1 21 17 12
17 14 -1 34 -27 30 -51 29 -35 -1 11 -21 11 -22 -4 -9 -10 7 -17 22 -17 32 0
10 -4 21 -10 24 -5 3 -10 11 -10 17 0 6 8 4 18 -5 10 -10 21 -15 24 -12 7 7
68 -50 68 -63 0 -5 7 -12 15 -16 23 -8 18 22 -5 36 -11 7 -20 21 -20 32 0 14
-3 16 -13 8 -12 -10 -22 6 -93 151 -15 31 -8 36 13 10 12 -16 12 -15 6 12 -36
148 60 576 187 830 151 301 198 373 283 430 52 35 57 38 57 31z m8004 -47
c-10 -12 -32 -30 -49 -41 -19 -12 -13 -4 15 21 49 44 64 53 34 20z m-10057
-11 c-3 -8 -6 -5 -6 6 -1 11 2 17 5 13 3 -3 4 -12 1 -19z m10078 -42 c-69 -33
-155 -87 -230 -143 -66 -49 -172 -121 -235 -159 -63 -38 -139 -88 -170 -111
-30 -24 -133 -99 -228 -168 -130 -95 -177 -135 -191 -164 -11 -21 -52 -63 -90
-95 -39 -31 -79 -69 -88 -83 -21 -31 -112 -99 -161 -120 -24 -10 -73 -17 -142
-18 -116 -2 -164 -17 -215 -64 -47 -43 -76 -58 -126 -63 -30 -3 -63 -16 -90
-36 -24 -17 -90 -49 -147 -72 -212 -83 -300 -140 -333 -215 -31 -69 -87 -113
-169 -130 -19 -4 -56 -18 -82 -31 -27 -14 -48 -22 -48 -20 0 9 97 64 133 76
52 16 103 63 132 120 26 51 98 121 156 151 31 15 188 80 253 103 19 6 19 7 0
21 -18 14 -17 15 9 9 20 -5 42 1 76 20 26 14 72 31 102 37 68 14 131 60 203
149 l28 35 -21 -39 -22 -38 28 5 c15 4 73 11 128 17 55 6 118 19 140 29 82 38
305 223 324 270 12 27 112 109 226 184 22 14 95 68 162 119 67 51 182 129 255
173 73 43 171 108 217 143 92 69 132 92 236 133 109 43 101 33 -20 -25z m-144
17 c-11 -16 -50 -57 -87 -93 -64 -61 -63 -59 17 27 46 51 85 92 87 93 2 0 -6
-12 -17 -27z m-10130 -50 c13 -16 12 -17 -3 -4 -17 13 -22 21 -14 21 2 0 10
-8 17 -17z m142 -195 c118 -191 234 -471 282 -678 48 -214 65 -399 39 -438 -9
-13 -13 -27 -9 -30 3 -4 10 0 15 8 15 24 23 3 11 -31 -6 -17 -8 -35 -5 -40 3
-5 0 -9 -5 -9 -6 0 -11 -6 -11 -14 0 -8 -6 -16 -14 -19 -11 -4 -11 2 1 35 10
29 11 44 3 52 -7 7 -10 6 -11 -2 -3 -26 -4 -31 -11 -38 -5 -4 -8 -18 -8 -30 0
-13 -5 -26 -11 -30 -8 -4 -9 1 -4 17 4 17 3 20 -3 10 -5 -7 -8 -33 -7 -57 2
-24 0 -44 -4 -44 -4 0 -16 -7 -27 -16 -10 -8 -12 -13 -4 -9 12 5 12 4 -1 -7
-8 -7 -21 -22 -27 -33 -7 -12 -12 -14 -12 -6 0 11 -3 11 -15 1 -8 -7 -15 -18
-15 -25 0 -7 -14 -15 -31 -19 -17 -3 -28 -10 -24 -16 3 -6 -4 -9 -17 -9 -38 2
-222 -19 -274 -31 -61 -14 -184 -5 -279 20 -214 57 -457 100 -573 101 -46 1
-80 5 -75 10 23 23 330 -21 578 -82 169 -42 258 -46 435 -20 223 33 269 62
341 216 59 129 81 209 81 300 0 269 -147 693 -350 1013 -8 12 -12 22 -9 22 3
0 25 -33 50 -72z m1367 -626 c0 -5 -9 -17 -21 -28 -21 -19 -21 -19 -8 9 12 26
29 37 29 19z m-680 -52 c0 -5 -5 -10 -11 -10 -5 0 -7 5 -4 10 3 6 8 10 11 10
2 0 4 -4 4 -10z m385 -10 c3 -5 1 -10 -4 -10 -6 0 -11 5 -11 10 0 6 2 10 4 10
3 0 8 -4 11 -10z m55 -55 c0 -12 -19 -12 -23 0 -4 9 -1 12 9 8 7 -3 14 -7 14
-8z m131 -26 c14 -14 15 -18 4 -23 -8 -3 -20 3 -27 13 -8 11 -22 17 -35 15
-13 -2 -23 0 -23 5 0 17 62 9 81 -10z m-651 -24 c0 -8 -2 -15 -4 -15 -2 0 -6
7 -10 15 -3 8 -1 15 4 15 6 0 10 -7 10 -15z m634 -14 c4 -5 -3 -7 -14 -4 -23
6 -26 13 -6 13 8 0 17 -4 20 -9z m28 -33 c-8 -8 -9 -4 -5 13 4 13 8 18 11 10
2 -7 -1 -18 -6 -23z m-25 -30 c-3 -8 -6 -5 -6 6 -1 11 2 17 5 13 3 -3 4 -12 1
-19z m-582 -28 c3 -6 -1 -7 -9 -4 -18 7 -21 14 -7 14 6 0 13 -4 16 -10z m890
-91 c11 -17 -1 -21 -15 -4 -8 9 -8 15 -2 15 6 0 14 -5 17 -11z m-8 -32 c4 -7
0 -8 -11 -4 -10 4 -22 7 -27 7 -5 0 -9 4 -9 9 0 12 38 2 47 -12z m13 -55 c0
-15 -2 -15 -10 -2 -13 20 -13 33 0 25 6 -3 10 -14 10 -23z m44 -19 c12 -16 14
-24 6 -21 -16 5 -46 48 -34 48 5 0 18 -12 28 -27z m-1318 -189 c-3 -8 -1 -24
4 -34 8 -16 8 -18 -5 -14 -21 9 -19 64 3 64 2 0 1 -7 -2 -16z m-2059 -10 c-3
-3 -12 -4 -19 -1 -8 3 -5 6 6 6 11 1 17 -2 13 -5z m3457 -43 c-5 -6 -33 31
-33 44 -1 6 8 -1 19 -15 10 -14 17 -27 14 -29z m-3407 33 c-3 -3 -12 -4 -19
-1 -8 3 -5 6 6 6 11 1 17 -2 13 -5z m40 -10 c-3 -3 -12 -4 -19 -1 -8 3 -5 6 6
6 11 1 17 -2 13 -5z m56 -11 c-7 -2 -19 -2 -25 0 -7 3 -2 5 12 5 14 0 19 -2
13 -5z m50 -10 c-7 -2 -19 -2 -25 0 -7 3 -2 5 12 5 14 0 19 -2 13 -5z m50 -10
c-7 -2 -19 -2 -25 0 -7 3 -2 5 12 5 14 0 19 -2 13 -5z m207 -24 l85 -8 -100 5
c-55 2 -116 8 -135 14 -31 8 -29 9 15 3 28 -3 88 -9 135 -14z m3058 4 c20 -38
23 -73 8 -73 -10 0 -13 6 -10 15 4 8 1 15 -5 15 -6 0 -11 -7 -11 -15 0 -8 -4
-15 -10 -15 -14 0 -12 11 6 31 10 11 14 25 10 36 -6 14 -9 15 -15 4 -5 -8 -11
-9 -15 -3 -5 9 7 19 26 21 4 1 11 -7 16 -16z m-2920 -10 c-10 -2 -26 -2 -35 0
-10 3 -2 5 17 5 19 0 27 -2 18 -5z m2115 -47 c3 3 10 -4 17 -15 10 -19 8 -21
-19 -21 -17 0 -31 6 -35 16 -9 22 3 37 18 25 7 -6 15 -8 19 -5z m669 -8 c-12
-12 -35 -1 -27 12 3 5 13 6 21 3 10 -4 12 -9 6 -15z m-697 -67 c-5 -13 -4 -14
6 -3 18 17 48 15 56 -4 3 -8 12 -13 20 -10 13 5 48 -19 48 -33 0 -3 8 -17 18
-31 10 -15 17 -19 17 -10 0 8 18 -7 41 -33 38 -44 65 -55 52 -22 -3 8 0 15 6
15 17 0 13 -31 -6 -46 -16 -12 -16 -13 -1 -14 26 0 40 53 20 82 -9 12 -20 26
-25 29 -5 4 -5 9 1 13 6 3 17 0 25 -8 12 -13 17 -11 37 16 20 27 24 29 32 14
7 -12 5 -24 -6 -41 -16 -24 -23 -55 -9 -42 7 7 26 -26 35 -61 6 -23 -10 -42
-21 -24 -6 10 -25 -3 -29 -20 -1 -5 -5 -7 -9 -5 -5 1 -7 5 -6 9 2 4 -4 5 -12
2 -8 -4 -12 -10 -9 -15 3 -5 0 -9 -5 -9 -6 0 -11 5 -11 10 0 6 -9 1 -20 -10
-25 -25 -25 -30 -2 -31 15 0 15 -1 -2 -8 -17 -7 -18 -8 -3 -14 17 -7 13 -35
-7 -49 -7 -6 -6 -11 4 -18 13 -9 13 -10 -1 -10 -8 0 -23 -17 -32 -38 -9 -22
-28 -44 -42 -50 -19 -9 -23 -8 -19 2 3 7 -2 16 -11 20 -13 5 -15 1 -10 -14 4
-12 2 -20 -5 -20 -6 0 -8 -4 -5 -10 3 -5 0 -7 -8 -4 -8 3 -22 -2 -31 -11 -14
-14 -17 -14 -22 -2 -6 16 -44 11 -44 -5 0 -6 -9 0 -21 13 -19 23 -20 23 -16 3
2 -11 -1 -21 -7 -21 -6 0 -24 -3 -40 -6 -21 -5 -33 -1 -42 11 -12 15 -13 15
-14 1 0 -17 -40 -35 -40 -18 0 5 -8 9 -17 9 -15 0 -14 2 3 15 16 12 17 14 3
15 -9 0 -19 7 -23 15 -4 11 2 15 23 15 25 0 28 3 24 23 -4 18 -3 19 6 7 8 -11
11 -11 11 -2 0 7 -7 15 -15 18 -8 4 -12 11 -8 17 4 6 -2 8 -15 5 -19 -5 -22
-2 -22 23 0 16 5 29 10 29 14 0 13 47 -1 56 -8 4 -8 9 0 17 15 15 14 30 -1 21
-8 -5 -9 -2 -3 12 5 10 9 29 9 42 1 12 5 22 9 22 4 0 18 11 31 25 13 14 28 25
35 25 6 0 11 14 11 30 0 29 13 40 25 20 3 -5 10 -10 16 -10 5 0 9 5 9 10 0 6
-4 9 -9 8 -21 -6 -12 17 20 52 34 37 56 43 44 11z m1075 19 c0 -5 -7 -10 -15
-10 -8 0 -15 5 -15 10 0 6 7 10 15 10 8 0 15 -4 15 -10z m-1130 -10 c0 -5 -2
-10 -4 -10 -3 0 -8 5 -11 10 -3 6 -1 10 4 10 6 0 11 -4 11 -10z m1165 0 c3 -5
2 -10 -4 -10 -5 0 -13 5 -16 10 -3 6 -2 10 4 10 5 0 13 -4 16 -10z m-175 -10
c0 -5 -4 -10 -9 -10 -6 0 -13 5 -16 10 -3 6 1 10 9 10 9 0 16 -4 16 -10z m49
-4 c9 -10 8 -15 -3 -19 -14 -5 -36 10 -36 25 0 13 27 9 39 -6z m-2672 -32 c-3
-3 -12 -4 -19 -1 -8 3 -5 6 6 6 11 1 17 -2 13 -5z m4448 -14 c42 -10 30 -9
-220 11 -90 7 -87 7 40 3 77 -2 158 -8 180 -14z m-4408 4 c-3 -3 -12 -4 -19
-1 -8 3 -5 6 6 6 11 1 17 -2 13 -5z m4062 2 c-2 -2 -56 -6 -119 -8 -63 -3 -99
-2 -80 2 35 7 207 13 199 6z m-4022 -12 c-3 -3 -12 -4 -19 -1 -8 3 -5 6 6 6
11 1 17 -2 13 -5z m3756 -11 c-13 -2 -35 -2 -50 0 -16 2 -5 4 22 4 28 0 40 -2
28 -4z m748 -12 c111 -32 183 -79 256 -169 42 -53 25 -41 -54 35 -68 67 -126
100 -221 129 -43 12 -70 23 -62 23 8 1 45 -7 81 -18z m-4434 3 c-3 -3 -12 -4
-19 -1 -8 3 -5 6 6 6 11 1 17 -2 13 -5z m3573 -1 c-206 -23 -654 -150 -780
-219 -66 -37 -180 -134 -214 -182 -85 -121 -11 -373 178 -608 173 -216 508
-488 643 -523 31 -9 54 -25 90 -67 26 -30 98 -109 158 -175 61 -66 125 -146
143 -177 45 -76 74 -105 157 -159 39 -25 131 -105 205 -177 133 -130 187 -173
285 -229 28 -15 39 -25 25 -22 -53 14 -195 111 -284 194 -41 38 -40 32 6 -36
16 -23 73 -135 128 -249 l100 -207 116 -111 c64 -61 137 -126 163 -144 114
-80 105 -76 366 -176 98 -38 298 -144 324 -172 9 -10 -37 14 -118 63 -80 49
-220 109 -346 149 -44 14 -100 37 -125 51 l-45 26 24 -26 c30 -33 74 -54 191
-89 53 -16 102 -37 110 -47 8 -10 54 -44 102 -74 65 -42 105 -78 165 -147 43
-51 82 -100 86 -109 5 -9 -8 4 -29 29 -83 100 -201 207 -262 240 -35 18 -73
44 -85 57 -12 12 -27 23 -32 23 -6 0 -55 14 -108 31 -87 27 -104 36 -150 81
-29 29 -72 66 -96 82 -25 17 -51 36 -59 41 -7 6 -58 52 -112 103 l-98 92 -117
235 c-134 271 -203 373 -291 431 -75 50 -173 148 -249 249 -33 44 -93 113
-132 155 -40 41 -83 90 -95 108 -17 23 -33 34 -62 39 -21 3 -80 27 -130 53
-50 26 -129 66 -176 90 -153 78 -362 204 -495 300 -74 53 -180 112 -280 155
-61 27 -246 32 -316 10 -45 -14 -184 -78 -198 -91 -3 -3 16 -26 41 -52 103
-108 214 -267 296 -427 46 -88 78 -155 73 -150 -5 6 -44 75 -86 155 -80 151
-170 278 -277 393 l-63 68 -58 -58 c-78 -77 -139 -197 -238 -468 -47 -127
-111 -286 -115 -283 -2 2 20 64 47 138 28 74 64 173 81 220 17 47 42 114 55
149 14 36 25 79 25 98 0 18 4 31 8 28 9 -5 25 24 21 39 -1 6 0 20 3 33 5 16
11 20 23 16 12 -5 15 -2 10 10 -4 11 1 25 14 38 23 23 16 43 -12 36 -11 -3
-16 -1 -13 5 3 5 14 8 24 5 9 -2 28 4 41 14 13 10 18 19 12 19 -7 0 -13 5 -13
11 0 5 4 8 9 5 5 -3 11 1 15 9 3 8 11 15 17 15 8 0 8 -4 -1 -15 -18 -21 0 -18
30 5 14 11 32 20 41 20 9 0 22 7 29 15 9 10 9 15 1 15 -6 0 -11 5 -11 10 0 6
6 10 14 10 7 0 19 7 26 15 7 8 21 15 30 15 10 0 21 6 23 13 4 9 8 9 15 -2 6
-8 17 -11 27 -8 9 4 14 3 10 -3 -3 -6 -15 -10 -26 -10 -10 0 -19 -5 -19 -11 0
-7 9 -9 23 -5 12 3 40 9 62 12 32 4 37 3 25 -6 -13 -10 -12 -11 3 -6 10 3 35
6 55 7 32 1 29 2 -23 14 -33 7 -64 10 -69 7 -5 -3 -7 2 -3 11 9 24 -12 31 -34
11 -18 -16 -19 -16 -19 0 0 9 8 19 18 22 9 3 25 10 34 15 11 5 19 5 23 -1 11
-18 23 -11 34 20 9 28 31 42 31 20 0 -5 -4 -10 -9 -10 -17 0 -24 -42 -10 -51
21 -12 86 -3 104 15 22 21 32 20 38 -3 3 -12 -1 -22 -10 -25 -9 -4 -11 -2 -7
6 4 7 3 8 -4 4 -16 -10 -15 -39 1 -33 47 17 57 18 51 3 -3 -8 -13 -17 -22 -20
-10 -3 -2 -4 16 -2 21 2 36 -2 39 -11 3 -7 14 -13 25 -13 19 0 96 -37 108 -51
3 -3 43 -30 90 -58 47 -29 108 -70 135 -91 78 -59 238 -157 375 -228 69 -35
166 -86 215 -113 50 -26 109 -52 132 -57 40 -9 42 -9 32 10 -6 10 -18 22 -27
25 -9 4 -37 19 -61 35 -25 15 -51 28 -58 28 -8 0 -23 9 -35 20 -14 13 -29 18
-45 14 -17 -5 -22 -3 -18 8 6 14 -20 45 -40 48 -5 1 -9 6 -7 11 1 5 -9 14 -24
19 -42 16 -341 317 -420 423 -94 125 -122 173 -155 267 -18 48 -32 74 -41 72
-10 -3 -11 -1 0 9 17 18 15 54 -3 73 -18 17 -20 36 -4 36 6 0 9 7 5 15 -3 9 8
37 24 64 17 26 30 53 30 60 0 19 -70 17 -82 -2 -6 -9 -8 -9 -8 0 0 6 4 15 10
18 15 9 80 12 80 3 0 -4 7 -5 16 -1 13 5 13 8 2 15 -9 7 -8 8 6 4 12 -4 28 2
45 18 43 41 98 86 105 86 4 0 23 10 44 23 20 13 64 33 96 45 96 36 392 119
505 142 58 11 106 22 108 23 1 2 29 4 60 4 32 0 42 -1 23 -4z m-1808 -25 c-7
-7 -12 -8 -12 -2 0 14 12 26 19 19 2 -3 -1 -11 -7 -17z m188 2 c0 -5 -7 -10
-15 -10 -8 0 -15 5 -15 10 0 6 7 10 15 10 8 0 15 -4 15 -10z m-1771 -26 c9 -8
-45 -2 -64 6 -14 7 -8 8 20 3 22 -3 42 -7 44 -9z m68 -20 c-3 -3 -12 -4 -19
-1 -8 3 -5 6 6 6 11 1 17 -2 13 -5z m7463 1 c0 -2 -10 -9 -22 -15 -22 -11 -22
-10 -4 4 21 17 26 19 26 11z m-7363 -30 c110 -42 283 -137 326 -179 8 -8 17
-13 20 -10 3 3 3 -3 1 -14 -3 -10 4 -37 15 -58 12 -21 21 -44 21 -51 0 -6 6
-14 13 -16 8 -4 7 -6 -3 -6 -8 -1 -15 -11 -16 -23 0 -13 -4 -38 -8 -55 -6 -27
-5 -33 8 -33 20 0 20 -7 0 -45 -9 -16 -18 -38 -20 -49 -2 -10 -10 -26 -18 -35
-8 -9 -17 -28 -21 -43 -16 -63 -367 -353 -537 -442 -76 -40 -232 -97 -261 -95
-7 0 31 15 84 33 145 49 214 85 329 171 58 43 128 96 157 118 76 56 184 175
212 231 34 70 51 142 51 222 0 84 -27 176 -61 205 -63 53 -161 108 -289 160
-106 43 -108 53 -3 14z m5841 -132 c-10 -2 -26 -2 -35 0 -10 3 -2 5 17 5 19 0
27 -2 18 -5z m49 -9 c-3 -3 -12 -4 -19 -1 -8 3 -5 6 6 6 11 1 17 -2 13 -5z
m-3702 -153 c3 -5 1 -12 -5 -16 -5 -3 -10 1 -10 9 0 18 6 21 15 7z m4570 -60
c39 -16 93 -39 120 -51 67 -29 317 -171 311 -177 -2 -2 -21 6 -43 20 -75 47
-230 126 -338 172 -60 25 -114 51 -119 56 -15 14 -7 12 69 -20z m-5342 -31
c-3 -11 -9 -20 -13 -20 -5 0 -6 9 -3 20 3 11 9 20 13 20 5 0 6 -9 3 -20z m177
-16 c0 -14 -4 -22 -10 -19 -5 3 -10 17 -10 31 0 14 4 22 10 19 6 -3 10 -17 10
-31z m-580 12 c0 -11 -19 -15 -25 -6 -3 5 1 10 9 10 9 0 16 -2 16 -4z m516
-23 c-4 -9 -1 -20 6 -25 10 -6 9 -8 -4 -8 -20 0 -36 22 -20 28 7 2 10 8 6 13
-3 5 0 9 6 9 7 0 9 -7 6 -17z m21 -5 c-3 -8 -6 -5 -6 6 -1 11 2 17 5 13 3 -3
4 -12 1 -19z m5758 -166 c-3 -3 -11 0 -18 7 -9 10 -8 11 6 5 10 -3 15 -9 12
-12z m-5050 -162 c3 -5 2 -10 -4 -10 -5 0 -13 5 -16 10 -3 6 -2 10 4 10 5 0
13 -4 16 -10z m-402 -64 c3 -8 -2 -16 -14 -19 -12 -3 -22 0 -26 9 -3 8 -9 11
-14 8 -5 -3 -9 0 -9 5 0 16 57 13 63 -3z m-1236 -18 c-3 -8 -6 -5 -6 6 -1 11
2 17 5 13 3 -3 4 -12 1 -19z m1373 -30 c0 -6 7 -20 17 -30 22 -25 -2 -24 -29
2 -12 11 -16 20 -9 20 7 0 9 5 6 10 -3 6 -1 10 4 10 6 0 11 -5 11 -12z m-1280
-37 c27 -10 68 -33 92 -50 23 -17 47 -31 53 -31 12 0 65 -85 65 -105 0 -8 4
-16 9 -19 30 -19 62 -320 49 -459 -11 -115 -24 -114 -17 1 9 153 -5 324 -35
410 -37 107 -60 139 -143 193 -148 96 -233 82 -635 -102 -82 -37 -148 -66
-148 -63 0 10 262 133 420 196 125 50 212 59 290 29z m800 -41 c-24 -15 -37
-11 -16 5 11 8 22 12 25 9 3 -3 -1 -9 -9 -14z m6481 -47 c13 -16 12 -17 -3 -4
-10 7 -18 15 -18 17 0 8 8 3 21 -13z m-6267 -71 c-3 -23 0 -58 9 -88 17 -56
91 -224 147 -335 44 -86 179 -299 219 -344 l26 -30 -28 25 c-44 38 -214 312
-274 439 -30 64 -65 136 -77 161 -34 65 -50 150 -35 184 17 36 20 33 13 -12z
m-1749 -90 c-6 -5 -33 -29 -61 -53 l-51 -44 54 53 c30 28 57 52 60 52 4 0 3
-4 -2 -8z m-476 -16 c-6 -6 -138 -36 -152 -35 -16 1 112 37 137 38 11 1 17 -1
15 -3z m8671 -37 c15 -28 5 -23 -15 7 -9 15 -12 23 -6 20 6 -4 16 -16 21 -27z
m-8850 -9 c-8 -5 -22 -9 -30 -9 -10 0 -8 3 5 9 27 12 43 12 25 0z m8900 -70
c6 -11 8 -20 6 -20 -3 0 -10 9 -16 20 -6 11 -8 20 -6 20 3 0 10 -9 16 -20z
m-7263 -422 c-3 -7 -5 -2 -5 12 0 14 2 19 5 13 2 -7 2 -19 0 -25z m-10 -50
c-3 -8 -6 -5 -6 6 -1 11 2 17 5 13 3 -3 4 -12 1 -19z m113 -163 c-16 -47 -23
-40 -8 8 6 20 13 35 16 33 2 -3 -1 -21 -8 -41z m4071 -1592 c13 -16 12 -17 -3
-4 -10 7 -18 15 -18 17 0 8 8 3 21 -13z m59 -73 c17 -22 30 -40 27 -40 -3 0
-22 21 -43 47 -21 26 -33 44 -27 40 6 -4 26 -25 43 -47z m51 -67 c13 -16 12
-17 -3 -4 -10 7 -18 15 -18 17 0 8 8 3 21 -13z"/>
<path d="M3840 6546 c0 -2 9 -6 20 -9 11 -3 20 -1 20 4 0 5 -9 9 -20 9 -11 0
-20 -2 -20 -4z"/>
<path d="M4270 6151 c0 -6 4 -13 10 -16 6 -3 7 1 4 9 -7 18 -14 21 -14 7z"/>
<path d="M4322 6003 c9 -10 18 -26 19 -36 2 -10 8 -17 14 -17 5 1 12 -8 17
-19 10 -29 28 -27 20 2 -9 30 -57 87 -73 87 -8 0 -7 -6 3 -17z"/>
<path d="M4300 5980 c19 -13 30 -13 30 0 0 6 -10 10 -22 10 -19 0 -20 -2 -8
-10z"/>
<path d="M4440 5883 c0 -7 11 -20 25 -29 14 -9 23 -19 21 -23 -3 -4 11 -5 30
-3 21 3 34 0 34 -7 0 -6 5 -11 11 -11 8 0 8 5 -1 15 -7 8 -17 15 -22 15 -16 0
-82 33 -90 44 -5 7 -8 7 -8 -1z"/>
<path d="M7035 5646 l-30 -13 35 -8 c68 -17 127 4 69 24 -38 13 -37 13 -74 -3z"/>
<path d="M4085 4730 c3 -5 10 -10 16 -10 5 0 9 5 9 10 0 6 -7 10 -16 10 -8 0
-12 -4 -9 -10z"/>
<path d="M4200 4710 c0 -5 5 -10 10 -10 6 0 10 5 10 10 0 6 -4 10 -10 10 -5 0
-10 -4 -10 -10z"/>
<path d="M3949 4673 c-1 -5 -1 -11 0 -15 0 -5 -6 -8 -14 -8 -8 0 -15 -5 -15
-11 0 -7 8 -6 22 3 25 17 35 38 19 38 -6 0 -12 -3 -12 -7z"/>
<path d="M3819 4572 c-2 -5 -21 -21 -42 -35 -21 -14 -34 -28 -30 -30 10 -7 89
60 81 68 -3 3 -8 2 -9 -3z"/>
</g>
</svg>
